<svg width="279" height="61" viewBox="0 0 279 61" fill="none" xmlns="http://www.w3.org/2000/svg">
<path d="M75.707 42.9899C73.3391 42.9899 71.2706 42.432 69.5014 41.316C67.7595 40.1729 66.562 38.6351 65.9088 36.7027L69.9097 34.7839C70.4813 36.0359 71.2706 37.0157 72.2776 37.7234C73.3119 38.431 74.455 38.7848 75.707 38.7848C76.6868 38.7848 77.4625 38.5671 78.0341 38.1316C78.6056 37.6961 78.8914 37.1246 78.8914 36.4169C78.8914 35.9815 78.7689 35.6276 78.524 35.3555C78.3062 35.0561 77.9932 34.8111 77.585 34.6206C77.2039 34.4028 76.7821 34.2259 76.3194 34.0898L72.6859 33.0692C70.8079 32.5249 69.379 31.6947 68.3991 30.5788C67.4465 29.4629 66.9702 28.1429 66.9702 26.6187C66.9702 25.2578 67.3104 24.0739 67.9909 23.0668C68.6985 22.0326 69.6647 21.2297 70.8895 20.6581C72.1415 20.0865 73.5704 19.8008 75.1763 19.8008C77.272 19.8008 79.1228 20.3043 80.7286 21.3113C82.3344 22.3184 83.4775 23.7337 84.158 25.5572L80.0754 27.476C79.6943 26.469 79.0547 25.6661 78.1565 25.0673C77.2584 24.4685 76.2513 24.1691 75.1354 24.1691C74.2373 24.1691 73.5296 24.3733 73.0125 24.7815C72.4953 25.1898 72.2368 25.7205 72.2368 26.3737C72.2368 26.782 72.3456 27.1358 72.5634 27.4352C72.7811 27.7346 73.0805 27.9796 73.4616 28.1701C73.8698 28.3606 74.3325 28.5375 74.8496 28.7008L78.4015 29.7623C80.2251 30.3066 81.6268 31.1232 82.6066 32.2119C83.6136 33.3005 84.1171 34.6342 84.1171 36.2128C84.1171 37.5464 83.7633 38.7304 83.0557 39.7647C82.348 40.7717 81.3682 41.561 80.1162 42.1326C78.8642 42.7041 77.3945 42.9899 75.707 42.9899ZM90.523 51.5225C89.9242 51.5225 89.339 51.4681 88.7675 51.3592C88.1959 51.2776 87.6788 51.1279 87.2161 50.9102V46.4193C87.5699 46.5009 87.9918 46.5826 88.4817 46.6642C88.9988 46.7459 89.4751 46.7867 89.9106 46.7867C91.1354 46.7867 92.0199 46.5009 92.5643 45.9294C93.1359 45.3578 93.6394 44.6093 94.0749 43.684L95.5446 40.2546L95.4629 44.7454L85.7872 20.2907H91.5436L98.3208 38.3358H96.2795L103.016 20.2907H108.813L99.1373 44.7454C98.5657 46.1879 97.8717 47.4127 97.0551 48.4198C96.2386 49.4268 95.286 50.1889 94.1973 50.706C93.1359 51.2504 91.9111 51.5225 90.523 51.5225ZM111.75 42.5V20.2907H116.772V24.659L116.363 23.8834C116.88 22.5497 117.724 21.5427 118.894 20.8622C120.092 20.1546 121.48 19.8008 123.059 19.8008C124.692 19.8008 126.134 20.1546 127.386 20.8622C128.666 21.5699 129.659 22.5633 130.367 23.8425C131.074 25.0945 131.428 26.5507 131.428 28.2109V42.5H126.08V29.4765C126.08 28.4967 125.889 27.653 125.508 26.9453C125.127 26.2377 124.597 25.6933 123.916 25.3123C123.263 24.904 122.487 24.6999 121.589 24.6999C120.718 24.6999 119.942 24.904 119.262 25.3123C118.581 25.6933 118.051 26.2377 117.67 26.9453C117.289 27.653 117.098 28.4967 117.098 29.4765V42.5H111.75ZM146.647 42.9899C144.442 42.9899 142.455 42.4864 140.686 41.4794C138.944 40.4451 137.57 39.057 136.563 37.3151C135.556 35.546 135.052 33.5591 135.052 31.3545C135.052 29.1499 135.556 27.1766 136.563 25.4347C137.57 23.6928 138.944 22.3184 140.686 21.3113C142.455 20.3043 144.442 19.8008 146.647 19.8008C148.226 19.8008 149.695 20.0865 151.056 20.6581C152.417 21.2024 153.587 21.9645 154.567 22.9444C155.574 23.897 156.295 25.0401 156.731 26.3737L152.036 28.415C151.628 27.2991 150.934 26.401 149.954 25.7205C149.001 25.0401 147.899 24.6999 146.647 24.6999C145.477 24.6999 144.429 24.9857 143.503 25.5572C142.605 26.1288 141.897 26.9181 141.38 27.9251C140.863 28.9322 140.605 30.0889 140.605 31.3953C140.605 32.7018 140.863 33.8585 141.38 34.8655C141.897 35.8726 142.605 36.6619 143.503 37.2334C144.429 37.805 145.477 38.0908 146.647 38.0908C147.926 38.0908 149.042 37.7506 149.995 37.0701C150.947 36.3897 151.628 35.4779 152.036 34.3348L156.731 36.4578C156.295 37.7098 155.588 38.8393 154.608 39.8463C153.628 40.8261 152.458 41.6018 151.097 42.1734C149.736 42.7177 148.253 42.9899 146.647 42.9899ZM172.914 42.9899C171.308 42.9899 169.825 42.6769 168.464 42.0509C167.131 41.3977 166.069 40.4723 165.28 39.2747L165.811 38.2133V42.5H160.789V11.5947H166.137V24.6999L165.321 23.5976C166.083 22.4 167.117 21.4746 168.423 20.8214C169.73 20.141 171.24 19.8008 172.955 19.8008C175.051 19.8008 176.942 20.3179 178.63 21.3521C180.317 22.3864 181.651 23.7745 182.631 25.5164C183.638 27.2583 184.141 29.2179 184.141 31.3953C184.141 33.5455 183.652 35.5051 182.672 37.2743C181.692 39.0434 180.358 40.4451 178.671 41.4794C176.983 42.4864 175.064 42.9899 172.914 42.9899ZM172.302 38.0908C173.527 38.0908 174.615 37.805 175.568 37.2334C176.521 36.6619 177.255 35.8726 177.773 34.8655C178.317 33.8585 178.589 32.7018 178.589 31.3953C178.589 30.0889 178.317 28.9458 177.773 27.966C177.255 26.9589 176.521 26.1696 175.568 25.598C174.615 24.9993 173.527 24.6999 172.302 24.6999C171.132 24.6999 170.07 24.9857 169.117 25.5572C168.192 26.1288 167.457 26.9317 166.913 27.966C166.396 28.973 166.137 30.1161 166.137 31.3953C166.137 32.7018 166.396 33.8585 166.913 34.8655C167.457 35.8726 168.192 36.6619 169.117 37.2334C170.07 37.805 171.132 38.0908 172.302 38.0908ZM199.079 42.9899C196.901 42.9899 194.914 42.4864 193.118 41.4794C191.349 40.4723 189.934 39.0978 188.872 37.3559C187.838 35.614 187.321 33.6272 187.321 31.3953C187.321 29.1635 187.838 27.1766 188.872 25.4347C189.934 23.6928 191.349 22.3184 193.118 21.3113C194.887 20.3043 196.874 19.8008 199.079 19.8008C201.256 19.8008 203.229 20.3043 204.998 21.3113C206.768 22.3184 208.169 23.6928 209.203 25.4347C210.265 27.1494 210.796 29.1363 210.796 31.3953C210.796 33.6272 210.265 35.614 209.203 37.3559C208.142 39.0978 206.727 40.4723 204.958 41.4794C203.188 42.4864 201.229 42.9899 199.079 42.9899ZM199.079 38.0908C200.276 38.0908 201.324 37.805 202.222 37.2334C203.148 36.6619 203.869 35.8726 204.386 34.8655C204.93 33.8313 205.203 32.6745 205.203 31.3953C205.203 30.0889 204.93 28.9458 204.386 27.966C203.869 26.9589 203.148 26.1696 202.222 25.598C201.324 24.9993 200.276 24.6999 199.079 24.6999C197.854 24.6999 196.779 24.9993 195.853 25.598C194.928 26.1696 194.193 26.9589 193.649 27.966C193.132 28.9458 192.873 30.0889 192.873 31.3953C192.873 32.6745 193.132 33.8313 193.649 34.8655C194.193 35.8726 194.928 36.6619 195.853 37.2334C196.779 37.805 197.854 38.0908 199.079 38.0908ZM221.588 42.9899C220.036 42.9899 218.689 42.7313 217.546 42.2142C216.403 41.6971 215.518 40.9622 214.892 40.0096C214.266 39.0298 213.953 37.9003 213.953 36.6211C213.953 35.3963 214.225 34.3076 214.77 33.355C215.314 32.3752 216.158 31.5586 217.301 30.9054C218.444 30.2522 219.887 29.7895 221.629 29.5173L228.896 28.3334V32.416L222.649 33.4775C221.588 33.668 220.798 34.0082 220.281 34.4981C219.764 34.988 219.506 35.6276 219.506 36.4169C219.506 37.179 219.791 37.7914 220.363 38.2541C220.962 38.6896 221.697 38.9073 222.568 38.9073C223.684 38.9073 224.663 38.676 225.507 38.2133C226.378 37.7234 227.045 37.0565 227.508 36.2128C227.997 35.3691 228.242 34.4437 228.242 33.4366V27.721C228.242 26.7684 227.861 25.9791 227.099 25.3531C226.364 24.6999 225.385 24.3733 224.16 24.3733C223.017 24.3733 221.996 24.6863 221.098 25.3123C220.227 25.911 219.587 26.714 219.179 27.721L214.811 25.598C215.246 24.4277 215.927 23.4207 216.852 22.5769C217.805 21.706 218.92 21.0255 220.2 20.5356C221.479 20.0457 222.867 19.8008 224.364 19.8008C226.187 19.8008 227.793 20.141 229.181 20.8214C230.569 21.4746 231.645 22.4 232.407 23.5976C233.196 24.7679 233.591 26.1424 233.591 27.721V42.5H228.528V38.7032L229.671 38.6215C229.1 39.5741 228.419 40.377 227.63 41.0303C226.841 41.6563 225.943 42.1462 224.936 42.5C223.928 42.8266 222.813 42.9899 221.588 42.9899ZM238.534 42.5V20.2907H243.555V25.2306L243.147 24.4957C243.664 22.8355 244.467 21.6788 245.556 21.0255C246.672 20.3723 248.005 20.0457 249.557 20.0457H250.863V24.7815H248.944C247.42 24.7815 246.195 25.2578 245.27 26.2104C244.345 27.1358 243.882 28.4423 243.882 30.1297V42.5H238.534ZM264.133 42.9899C261.982 42.9899 260.064 42.4864 258.376 41.4794C256.689 40.4451 255.355 39.0434 254.375 37.2743C253.395 35.5051 252.905 33.5455 252.905 31.3953C252.905 29.2179 253.395 27.2583 254.375 25.5164C255.355 23.7745 256.689 22.3864 258.376 21.3521C260.091 20.3179 261.996 19.8008 264.092 19.8008C265.779 19.8008 267.276 20.141 268.583 20.8214C269.916 21.4746 270.964 22.4 271.726 23.5976L270.91 24.6999V11.5947H276.258V42.5H271.195V38.2133L271.767 39.2747C271.005 40.4723 269.943 41.3977 268.583 42.0509C267.222 42.6769 265.738 42.9899 264.133 42.9899ZM264.704 38.0908C265.929 38.0908 267.004 37.805 267.929 37.2334C268.855 36.6619 269.576 35.8726 270.093 34.8655C270.638 33.8585 270.91 32.7018 270.91 31.3953C270.91 30.1161 270.638 28.973 270.093 27.966C269.576 26.9317 268.855 26.1288 267.929 25.5572C267.004 24.9857 265.929 24.6999 264.704 24.6999C263.507 24.6999 262.432 24.9993 261.479 25.598C260.526 26.1696 259.778 26.9589 259.233 27.966C258.716 28.9458 258.458 30.0889 258.458 31.3953C258.458 32.7018 258.716 33.8585 259.233 34.8655C259.778 35.8726 260.526 36.6619 261.479 37.2334C262.432 37.805 263.507 38.0908 264.704 38.0908Z" fill="black"/>
<g clip-path="url(#clip0_437_1729)">
<path d="M50.2026 41.7313L48.5727 35.6703L50.5876 33.6554L50.6859 33.6226L46.009 16.1849L43.5273 16.8484L42.8639 14.3666L40.3821 15.03L39.7187 12.5483L34.7552 13.8834L34.0918 11.4016L26.6466 13.3919L25.9831 10.9102L21.0196 12.2453L18.3577 2.3183L15.876 2.98174L15.2125 0.5L10.1754 1.85144L8.36524 4.99662V5.013L4.69587 8.6578L9.3481 26.0054L3.75395 27.5043L0.0927734 31.1736L0.77259 33.7209L2.10765 38.6844L4.58939 38.0209L5.25283 40.5027L7.73456 39.8392L9.06143 44.8027L11.5432 44.1393L12.8782 49.0946L15.36 48.4311L16.6868 53.3946L19.1686 52.7312L20.4955 57.6947L21.1671 60.1764L43.4945 54.1891L46.05 53.5093L49.7112 49.8399L48.0894 43.7789L50.1043 41.764L50.2026 41.7313Z" fill="black"/>
<path d="M20.2002 50.9367L17.7266 51.6001L16.3916 46.6367L13.9098 47.3001L12.583 42.3366L10.1012 43.0082L8.77435 38.0448L6.28442 38.7082L5.62098 36.2265L3.13924 36.8899L1.73047 31.607L4.51526 28.8222L11.1414 27.0448L6.33356 9.09932L10.0111 5.45452L14.1801 2.29297L14.8436 4.77471L17.3253 4.11127L19.979 14.0382L24.9425 12.7032L25.6059 15.1849L33.0512 13.1946L33.7228 15.6763L38.6863 14.3495L39.3497 16.823L41.8314 16.1596L42.4949 18.6413L44.9766 17.9779L49.0391 33.1304L46.9423 35.2272L48.5477 41.2391L46.4509 43.3359L48.0808 49.4051L45.2879 52.1899L22.1987 58.3819L20.2002 50.9367Z" fill="white"/>
<path d="M43.5024 16.882L42.8389 14.4248L40.3818 15.0883L39.7183 12.6311L34.7549 13.958L34.0914 11.5008L26.6216 13.442L25.9582 10.9848L20.9947 12.3117L18.3328 2.36014L15.8756 3.02357L15.2122 0.566406L10.2241 1.8769L10.8876 4.33406L8.4304 4.9975L14.4177 27.3331L11.9605 27.9966L11.2971 25.5394L3.80273 27.5297L4.46617 29.9869L4.80198 31.2319L5.8258 34.9749L8.28297 34.3115L8.95459 36.7687L11.4118 36.1052L12.7468 41.0687L15.204 40.4053L16.5309 45.3688L18.988 44.6971L20.3149 49.6606L22.7721 48.9972L24.1071 53.9606L24.7706 56.4178L47.1881 50.4633L49.6453 49.7917L47.6468 42.3464L50.104 41.683L48.1137 34.2378L50.5708 33.5744L45.9595 16.2268L43.5024 16.882Z" fill="white"/>
<path d="M10.8963 4.34998L8.41211 5.01562L16.3913 34.7944L18.8755 34.1288L10.8963 4.34998Z" fill="black"/>
<path d="M15.247 0.526103L10.2656 1.86133L10.9343 4.35601L15.9157 3.02078L15.247 0.526103Z" fill="black"/>
<path d="M18.3367 2.35975L15.8525 3.02539L21.8369 25.3595L24.3211 24.6938L18.3367 2.35975Z" fill="black"/>
<path d="M25.9583 10.9571L20.998 12.2871L21.6641 14.7712L26.6244 13.4412L25.9583 10.9571Z" fill="black"/>
<path d="M29.7794 15.2551L27.2949 15.9199L29.2871 23.3653L31.7716 22.7005L29.7794 15.2551Z" fill="black"/>
<path d="M34.0658 11.4466L26.6211 13.4414L27.2867 15.9256L34.7314 13.9308L34.0658 11.4466Z" fill="black"/>
<path d="M38.0572 15.7649L35.5625 16.4336L37.5643 23.9017L40.059 23.2331L38.0572 15.7649Z" fill="black"/>
<path d="M39.689 12.5927L34.7285 13.9219L35.3942 16.4061L40.3546 15.0769L39.689 12.5927Z" fill="black"/>
<path d="M42.8435 14.4101L40.3594 15.0762L41.0254 17.5603L43.5095 16.8942L42.8435 14.4101Z" fill="black"/>
<path d="M45.9862 16.2367L43.502 16.9023L48.1572 34.2759L50.6414 33.6103L45.9862 16.2367Z" fill="black"/>
<path d="M48.1579 34.2656L45.6738 34.9316L47.6699 42.376L50.154 41.7099L48.1579 34.2656Z" fill="black"/>
<path d="M47.6794 42.371L45.1953 43.0371L47.1914 50.4815L49.6755 49.8154L47.6794 42.371Z" fill="black"/>
<path d="M46.7701 48.1563L24.3418 54.168L25.0105 56.6626L47.4388 50.6509L46.7701 48.1563Z" fill="black"/>
<path d="M14.3907 27.3587L11.9062 28.0234L12.571 30.5079L15.0555 29.8431L14.3907 27.3587Z" fill="black"/>
<path d="M11.2439 25.5397L3.79883 27.5332L4.46403 30.0175L11.9091 28.024L11.2439 25.5397Z" fill="black"/>
<path d="M6.95186 29.3437L4.46777 30.0098L5.7978 34.97L8.28189 34.304L6.95186 29.3437Z" fill="black"/>
<path d="M10.7663 33.6425L8.28223 34.3086L8.9483 36.7927L11.4324 36.1266L10.7663 33.6425Z" fill="black"/>
<path d="M13.9041 35.4711L11.4199 36.1367L12.7491 41.0972L15.2333 40.4316L13.9041 35.4711Z" fill="black"/>
<path d="M17.7186 39.7582L15.2344 40.4238L16.5635 45.3843L19.0477 44.7187L17.7186 39.7582Z" fill="black"/>
<path d="M21.5292 44.0633L19.0449 44.7285L20.3732 49.6892L22.8575 49.024L21.5292 44.0633Z" fill="black"/>
<path d="M25.5152 48.511L23.0205 49.1797L24.3557 54.1611L26.8504 53.4924L25.5152 48.511Z" fill="black"/>
</g>
<defs>
<clipPath id="clip0_437_1729">
<rect width="50.5931" height="59.6764" fill="white" transform="translate(0.0927734 0.5)"/>
</clipPath>
</defs>
</svg>
